# xmcd
#
# Track frame offsets: 
#        150
#        15806
#        32285
#        46140
#        66354
#        84946
#        100604
#        118865
#        135075
#        150201
#        168072
#        186975
#
# Disc length: 2739 seconds
#
# Revision: 0
# Processed by: cddbd v1.5.2PL0 Copyright (c) Steve Scherf et al.
# Submitted via: ExactAudioCopy v1.2
#
DISCID=760ab10c
DTITLE=陳慧琳 (Kelly Chen) -  Happy Girl
DYEAR=2006
DGENRE=Pop
TTITLE0=毫無保留 
TTITLE1=海豚
TTITLE2=面紅
TTITLE3=終於開竅
TTITLE4=得天獨厚
TTITLE5=寶萊塢生死戀
TTITLE6=兒女私情
TTITLE7=一刀兩斷
TTITLE8=有血有淚
TTITLE9=Happy Girl
TTITLE10=快D快樂 - 國
TTITLE11=因為有你 - 國
EXTD=
EXTT0=
EXTT1=
EXTT2=
EXTT3=
EXTT4=
EXTT5=
EXTT6=
EXTT7=
EXTT8=
EXTT9=
EXTT10=
EXTT11=
PLAYORDER=
